<?xml version="1.0" encoding="UTF-8"?>
<svg width="119px" height="53px" viewBox="0 0 119 53" version="1.1" xmlns="http://www.w3.org/2000/svg" xmlns:xlink="http://www.w3.org/1999/xlink">
    <!-- Generator: Sketch 63.1 (92452) - https://sketch.com -->
    <title>Group 13</title>
    <desc>Created with Sketch.</desc>
    <g id="Rough-work" stroke="none" stroke-width="1" fill="none" fill-rule="evenodd" fill-opacity="0.5">
        <g id="GS-explore-+-support-expanded" transform="translate(-51.000000, -266.000000)" fill="#FFBCAC">
            <g id="Explore" transform="translate(50.000000, 266.000000)">
                <g id="Group-3" transform="translate(1.000000, 0.000000)">
                    <g id="Group-13" transform="translate(-44.000000, -44.000000)">
                        <path d="M24.1057626,6.59022786 C0.959589574,20.0633069 -6.88268655,49.747843 6.59173439,72.893935 C20.0635658,96.0400271 49.7495006,103.882276 72.8956736,90.4091967 C96.040552,76.9361177 103.881533,47.2515816 90.4097019,24.1054895 C76.9378705,0.959397502 47.2519357,-6.88155643 24.1057626,6.59022786 M43.9682021,39.3560991 C48.7342889,36.5808151 54.8694399,38.2024014 57.6447433,42.9684549 C60.4187647,47.7345084 58.7971672,53.8696166 54.0323622,56.6436187 C49.2649935,59.4189027 43.1298425,57.7985983 40.355821,53.0312629 C37.5817996,48.2652094 39.2008334,42.1301012 43.9682021,39.3560991" id="Fill-1"></path>
                        <path d="M124.674298,22.4650264 C112.504825,29.5481151 108.381331,45.1554403 115.465427,57.3251337 C122.549524,69.4948271 138.156567,73.6183953 150.326041,66.5353066 C162.495515,59.4510824 166.619008,43.8426215 159.533776,31.6729281 C152.450816,19.5043703 136.843772,15.3819378 124.674298,22.4650264 M127.432994,25.846694 C137.443152,20.0210113 150.326347,23.4239105 156.153255,33.4338907 C161.979042,43.4427481 158.576082,56.3268364 148.565924,62.1525191 C138.556889,67.9793245 125.672572,64.5764253 119.846785,54.5664451 C114.020999,44.556465 117.423959,31.6734994 127.432994,25.846694" id="Fill-4"></path>
                        <path d="M128.698095,29.3778094 C120.345528,34.2386754 117.517128,44.9500382 122.378122,53.3023846 C127.239117,61.6535974 137.949629,64.4830567 146.301062,59.6221906 C154.65363,54.760191 157.483164,44.0488282 152.622169,35.6976154 C147.760041,27.3464026 137.048395,24.5169433 128.698095,29.3778094 M130.707504,32.8305765 C137.141894,29.0844539 145.423919,31.2727715 149.169999,37.7072337 C152.914925,44.1428506 150.727787,52.4249689 144.292242,56.1699367 C137.857852,59.9149045 129.575827,57.7277417 125.829747,51.2932795 C122.084821,44.8576626 124.273114,36.5766992 130.707504,32.8305765" id="Fill-6"></path>
                    </g>
                </g>
            </g>
        </g>
    </g>
</svg>