<?xml version="1.0" encoding="UTF-8"?>
<svg width="609px" height="119px" viewBox="0 0 609 119" version="1.1" xmlns="http://www.w3.org/2000/svg" xmlns:xlink="http://www.w3.org/1999/xlink">
    <title>Combined Shape</title>
    <g id="Page-1" stroke="none" stroke-width="1" fill="none" fill-rule="evenodd">
        <g id="mapquest-logo-copy" fill="#333333" fill-rule="nonzero">
            <path d="M231.583889,20.8940962 C249.62928,20.8940962 264.308595,37.0970769 264.308595,57.0136923 C264.308595,74.1636923 253.307065,87.6848654 236.847362,90.67575 C230.467168,92.2710769 224.609296,92.0939231 221.110298,91.9865 C219.388881,91.9346731 218.604462,91.9167692 218.094308,92.0402115 C214.435245,92.7554231 213.885776,95.3590192 213.621807,96.6094615 L213.621807,96.6094615 L213.563771,96.9015769 C213.127567,100.226981 212.598692,104.041442 211.852651,107.212308 L211.852651,107.212308 L211.831122,107.331038 C210.86417,114.038385 206.103362,118.907288 200.509459,118.907288 C194.757362,118.907288 190.618099,115.687423 190.443991,111.079538 L190.443991,111.079538 L190.435567,110.971173 C190.411229,110.76575 190.39438,110.559385 190.39438,110.34925 L190.39438,110.34925 L190.39438,27.6391346 C190.39438,24.7745192 192.70926,22.44325 195.555823,22.44325 L195.555823,22.44325 L199.864513,22.44325 L199.982457,22.4375962 C200.18839,22.4206346 200.617106,22.3989615 201.218994,22.4696346 C202.067065,22.5393654 202.888927,22.8192308 203.637776,23.3073462 C204.436237,23.7860385 205.152324,24.4569615 205.762636,25.2993846 C208.276619,28.759329 212.358224,26.9022022 216.04569,25.0770175 L216.469306,24.8668654 C217.582283,24.3127885 218.733638,23.7398654 219.851296,23.2969808 C223.604902,21.7025962 227.552273,20.8940962 231.583889,20.8940962 Z M312.556943,0.08059231 C325.677715,0.08059231 336.827142,4.39259231 344.801449,12.5482654 C352.787925,20.7171308 357.009562,32.1492077 357.009562,45.6072462 C357.009562,52.16665 355.970534,58.3095538 353.917751,63.8880154 C353.485291,65.12715 352.784181,66.9373231 351.88369,68.5722269 C351.71239,68.9105154 351.536411,69.24315 351.356687,69.5757846 L351.356687,69.5757846 L351.289291,69.7190154 C350.754799,71.0589769 350.601285,73.2055538 352.959224,75.8930154 L352.959224,75.8930154 L354.280007,77.2169577 C354.383909,77.3130731 354.47658,77.3959962 354.554273,77.4694962 L354.554273,77.4694962 L356.375848,79.3258423 L356.456349,79.4002846 C358.827393,81.4262462 360.133198,84.1042846 360.133198,86.9406308 C360.133198,92.8545538 354.439137,97.665977 347.441142,97.665977 C345.672922,97.665977 343.95525,97.359727 342.262851,96.7312077 C340.359838,96.1450923 338.409086,94.9813423 336.341326,93.7516308 C333.10817,91.8264962 329.511823,89.6827462 325.57194,89.6827462 C324.865214,89.6827462 324.146319,89.7524769 323.417127,89.9041885 C321.105055,90.3857077 318.483147,90.6825346 315.600078,90.7880731 C314.528288,90.8464962 313.532319,90.8747654 312.556943,90.8747654 C285.969991,90.8747654 268.106196,72.6835154 268.106196,45.6072462 C268.106196,32.1492077 272.326897,20.7171308 280.312436,12.5482654 C288.287679,4.39259231 299.437106,0.08059231 312.556943,0.08059231 Z M139.979893,20.8937192 C143.24113,20.8937192 146.483647,21.4364885 149.620389,22.50695 L149.620389,22.50695 L149.868445,22.5663154 C150.822292,22.7811615 152.010153,23.3616231 153.08756,23.9241808 L153.08756,23.9241808 L153.72221,24.2257192 C154.148118,24.4405654 154.82957,24.8005269 155.674834,25.3046615 C158.168501,26.6059885 162.807621,29.0296038 165.515647,25.2980654 C167.589959,22.4391038 170.246501,22.3439308 171.29489,22.4381615 L171.29489,22.4381615 L176.007959,22.4438154 C178.854522,22.4438154 181.169402,24.7741423 181.169402,27.6387577 L181.169402,27.6387577 L181.169402,85.7687769 C181.169402,88.6333923 178.854522,90.9637192 176.007959,90.9637192 L176.007959,90.9637192 L168.894829,90.9637192 C167.518818,90.9637192 166.220501,90.4171808 165.211427,89.3966615 C164.400798,88.6220846 164.085345,87.7419692 163.806399,86.9645654 C163.513412,86.1457 163.180174,85.2184692 162.1711,84.9423731 C161.221934,84.6822962 160.398199,85.2307192 159.718619,85.7998731 C159.39287,86.0722 159.06244,86.3388731 158.72265,86.6017769 L158.72265,86.6017769 L158.590665,86.7035462 C153.097857,90.9100077 146.662435,93.1329115 139.979893,93.1329115 C121.935437,93.1329115 107.255187,76.9299308 107.255187,57.0133154 C107.255187,37.0967 121.935437,20.8937192 139.979893,20.8937192 Z M535.752074,19.1134173 C543.262094,18.7308404 552.523485,20.7888404 559.343629,24.3583019 L559.343629,24.3583019 L559.429746,24.3997635 C559.732094,24.5316865 560.043803,24.7013019 560.358319,24.9048404 L560.358319,24.9048404 L560.498728,24.9849365 C563.199265,26.3117058 564.876687,28.838975 564.876687,31.5792058 C564.876687,34.6181481 562.839818,37.3423596 559.684355,38.5202442 L559.684355,38.5202442 L559.575772,38.5664173 C558.979501,38.8500519 558.251245,39.0149558 557.34701,39.0601865 C557.043726,39.0893981 556.734826,39.1054173 556.423117,39.1054173 C555.249296,39.1054173 553.658928,38.7850327 551.943127,38.2026865 L551.943127,38.2026865 L551.806462,38.1631096 C551.603337,38.1178788 551.290693,38.0208212 550.899419,37.9011481 C548.539608,37.1831096 543.631838,35.6895519 540.455782,37.5195135 C539.13968,38.2790135 538.274759,39.484225 537.885358,41.1059365 C537.627941,42.1763981 537.773966,43.2044558 538.309393,44.077975 C538.38147,44.1948212 538.47414,44.2833981 538.555577,44.3898788 C539.119086,45.0014365 540.108503,45.6846096 541.868299,46.2226673 C544.511736,47.0311673 550.18146,48.6792635 554.938524,52.1394173 C557.255276,53.7488788 559.073107,55.6287827 560.445373,57.8535712 L560.445373,57.8535712 L560.478135,57.9044558 C561.508739,59.4196865 564.737214,64.9877827 563.020478,73.0567635 C561.159588,83.7010712 551.031404,90.7712058 536.587976,91.5062058 C529.067659,91.8840712 519.816565,89.8298404 512.997358,86.2613212 L512.997358,86.2613212 L512.909368,86.2198596 C512.608892,86.0888788 512.296248,85.9183212 511.980795,85.7138404 L511.980795,85.7138404 L511.840386,85.6346865 C509.139849,84.306975 507.461491,81.7806481 507.461491,79.0404173 C507.461491,76.0024173 509.500232,73.2772635 512.654759,72.0984365 L512.654759,72.0984365 L512.763342,72.0532058 C513.358677,71.7695712 514.087869,71.6046673 514.99304,71.5603788 C515.296324,71.5311673 515.605225,71.5142058 515.917869,71.5142058 C517.089818,71.5142058 518.681122,71.8345904 520.395987,72.4169365 L520.395987,72.4169365 L520.532652,72.4555712 C520.737649,72.5026865 521.049358,72.5988019 521.440631,72.7175327 C523.800442,73.4365135 528.710084,74.9291288 531.885204,73.1001096 C533.201306,72.3406096 534.065291,71.1353981 534.454693,69.5136865 C534.712109,68.4422827 534.565148,67.414225 534.030657,66.5416481 C533.864974,66.2702635 533.670273,66.0290327 533.460595,65.8151288 C532.792248,65.1753019 531.383475,64.5609173 529.646145,63.9126096 C526.718145,62.9731288 523.433506,61.9007827 520.300508,60.2413788 L520.300508,60.2413788 L520.20971,60.1914365 C519.903618,60.0293596 519.601271,59.8597442 519.29237,59.6807058 C517.49326,58.6564173 515.908508,57.4643981 514.566196,56.1272635 L514.566196,56.1272635 L513.683491,55.1114558 C511.903102,53.0628788 510.646907,50.7203019 509.870913,47.9885519 L509.870913,47.9885519 L509.903675,47.9885519 L509.561076,46.3366865 C509.276514,44.9693981 509.10615,43.6529942 509.038754,42.3130327 C508.384447,29.2837442 519.120135,19.9605519 535.752074,19.1134173 Z M415.422974,18.5615077 C421.810657,18.5615077 426.27099,22.7642 426.27099,28.7808346 C426.27099,29.0934357 427.179033,55.8875226 427.206177,62.7539015 L427.206115,63.3324308 C427.134038,76.5699692 422.02876,84.7878346 412.643808,88.4496423 L412.643808,88.4496423 L411.795737,88.8388154 C409.65122,89.5662769 403.687573,91.3302769 396.023102,91.4113154 L396.023102,91.4113154 L395.994084,91.4094308 L395.956642,91.4113154 C388.699358,91.3378154 382.966918,89.7585077 380.542519,88.9688538 L380.542519,88.9688538 L380.554688,88.9387 L379.300366,88.4496423 C369.910734,84.78595 364.738059,75.8594692 364.737123,63.3522192 C364.893445,57.6352385 365.672248,29.1031038 365.672248,28.7808346 C365.672248,22.7642 370.133517,18.5615077 376.521199,18.5615077 C381.65924,18.5615077 385.699281,21.6070462 387.064059,26.5079885 L387.064059,26.5079885 L387.104309,26.6295462 C387.330836,27.2232 387.445036,27.8347577 387.446908,28.5122769 L387.446908,28.5122769 L388.516826,52.1293346 C388.516826,52.5986038 388.552396,53.08295 388.624473,53.6115846 C388.796708,57.6776423 392.005527,60.8513346 395.960386,60.8513346 C399.796366,60.8513346 403.000504,57.7775269 403.283194,53.8386808 C403.380545,53.2186423 403.426412,52.6758731 403.42454,52.1924692 L403.42454,52.1924692 L404.498202,28.4500846 C404.498202,27.8347577 404.613338,27.2232 404.839864,26.6295462 L404.839864,26.6295462 L404.880115,26.5079885 C406.244893,21.6070462 410.283997,18.5615077 415.422974,18.5615077 Z M16.6565757,4.29569167 L17.043862,4.30071731 L17.309704,4.30825577 C27.887197,4.65408269 31.162476,11.3736788 31.914134,13.4250827 L31.914134,13.4250827 L45.31666,39.2556212 C45.794988,40.3006404 47.273965,42.066525 49.785417,42.066525 C52.294998,42.066525 53.774911,40.3006404 54.22422,39.3168712 L54.22422,39.3168712 L68.076057,12.6363712 C69.439898,9.6558519 73.107387,4.61073654 82.333208,4.30919808 C82.384691,4.30825577 82.43711,4.30542885 82.470809,4.30071731 L82.470809,4.30071731 L82.647724,4.30071731 C83.012788,4.29317885 83.386277,4.29317885 83.791591,4.30071731 L83.791591,4.30071731 L92.455775,4.30071731 C96.532323,4.30071731 99.847852,7.6402558 99.847852,11.7430635 L99.847852,11.7430635 L99.847852,83.6939096 C99.847852,87.7967173 96.532323,91.1362558 92.455775,91.1362558 L92.455775,91.1362558 L82.470809,91.1362558 C78.395197,91.1362558 75.077796,87.7967173 75.077796,83.6939096 L75.077796,83.6939096 L75.077796,76.5097558 L75.074988,76.4070442 C74.930834,74.4856788 73.958266,72.9996596 72.405341,72.3296788 C72.09176,72.1939865 71.777243,72.1317942 71.464599,72.1317942 C68.874517,72.1317942 66.371489,76.4192942 65.030113,79.1802558 C64.973013,79.2971019 59.186282,90.8808904 50.336758,90.9600442 L50.336758,90.9600442 L50.259064,90.9600442 C41.434814,90.8808904 35.623745,79.2961596 35.569453,79.184025 C32.060159,71.9650058 29.440123,71.7925635 28.190481,72.3296788 C26.637555,72.9996596 25.664052,74.4856788 25.52177,76.4070442 L25.52177,76.4070442 L25.518026,83.6939096 C25.518026,87.7967173 22.200625,91.1362558 18.125013,91.1362558 L18.125013,91.1362558 L8.140983,91.1362558 C4.064435,91.1362558 0.747034,87.7967173 0.747034,83.6939096 L0.747034,83.6939096 L0.747034,11.7430635 C0.747034,7.6402558 4.064435,4.30071731 8.140983,4.30071731 L8.140983,4.30071731 L15.899059,4.30071731 C16.278164,4.29317885 16.650717,4.29317885 17.043862,4.30071731 Z M469.4603,18.6565865 C470.83631,18.6565865 472.254443,18.7366827 473.983349,18.9119519 C476.766259,19.0693173 479.525768,19.6761635 482.219753,20.7287212 C487.361538,22.5690481 491.595344,25.6079904 494.804162,29.7635673 L494.804162,29.7635673 L494.870623,29.8427212 C496.207318,31.3287404 497.536525,33.0258365 498.827354,34.8934904 L498.827354,34.8934904 L499.092259,35.3128173 C499.135318,35.3806635 503.358827,42.1662212 501.771267,48.247875 C501.020546,51.1256827 499.047328,53.4428173 495.906842,55.132375 C495.491231,55.3547596 495.149569,55.5818558 494.938955,55.7288558 L494.938955,55.7288558 L485.750576,61.2545481 C484.701252,61.8802404 483.367364,63.2060673 483.061272,64.8796058 C482.862827,65.9679712 483.129605,67.014875 483.833523,67.9062981 C484.790177,69.1171635 486.795221,69.4469712 489.331947,69.8625288 C490.442116,70.0434519 491.588791,70.2328558 492.713001,70.5042404 L492.713001,70.5042404 L492.776653,70.5174327 C497.953073,71.510625 501.569078,75.7293365 501.569078,80.7763365 C501.569078,84.5992788 499.734397,88.0632019 496.780188,89.8187212 L496.780188,89.8187212 L496.673477,89.8884519 C495.983599,90.3907019 494.100244,90.8185096 492.836561,90.8684519 C492.322554,90.8925848 484.657774,90.9006782 477.160368,90.9026831 L470.103374,90.903043 C448.217323,90.903043 433.512735,76.4115673 433.512735,54.8440288 C433.512735,33.2001635 447.95897,18.6565865 469.4603,18.6565865 Z M588.879829,1.94099038 C591.937005,1.94099038 594.425056,4.44470192 594.425056,7.5222788 L594.425056,7.5222788 L594.425992,14.6866442 C594.596355,18.8469327 597.472872,20.7843173 603.7501,20.9661827 L603.7501,20.9661827 L603.789414,20.967125 C607.153619,20.967125 608.347097,23.9740288 608.347097,26.5484135 L608.347097,26.5484135 L608.347097,33.4187788 C608.347097,35.9941058 607.153619,39.0000673 603.789414,39.0000673 L603.789414,39.0000673 L599.626749,39.0019519 C596.56302,39.1282212 594.668432,41.7110865 594.425056,46.1634904 L594.425056,46.1634904 L594.425056,85.2504135 C594.425056,88.3289327 591.937005,90.8317019 588.879829,90.8317019 L588.879829,90.8317019 L575.755312,90.8317019 C572.698136,90.8317019 570.210084,88.3289327 570.210084,85.2504135 L570.210084,85.2504135 L570.210084,7.5222788 C570.210084,4.44470192 572.698136,1.94099038 575.755312,1.94099038 L575.755312,1.94099038 Z M142.109432,44.0744885 C135.191939,44.0744885 129.564338,49.7396423 129.564338,56.7042385 C129.564338,63.6678923 135.191939,69.3321038 142.109432,69.3321038 C149.026926,69.3321038 154.654527,63.6678923 154.654527,56.7042385 C154.654527,49.7396423 149.026926,44.0744885 142.109432,44.0744885 Z M229.455285,44.0739231 C222.536856,44.0739231 216.909255,49.7400192 216.909255,56.7046154 C216.909255,63.6673269 222.536856,69.3324808 229.455285,69.3324808 C236.372779,69.3324808 242.00038,63.6673269 242.00038,56.7046154 C242.00038,49.7400192 236.372779,44.0739231 229.455285,44.0739231 Z M313.349787,28.6259192 C304.568595,28.6259192 297.424574,35.8157269 297.424574,44.6545731 C297.424574,53.4934192 304.568595,60.6851115 313.349787,60.6851115 C322.129106,60.6851115 329.273127,53.4934192 329.273127,44.6545731 C329.273127,35.8157269 322.129106,28.6259192 313.349787,28.6259192 Z M476.095103,40.7216635 C472.783318,37.4141635 468.215339,36.8318173 464.17249,39.2017212 C459.226341,42.1012019 457.266229,47.2264135 459.177666,52.2564519 L459.177666,52.2564519 L459.27408,52.4581058 C459.898433,53.5351635 460.874745,54.1193942 461.944663,54.1193942 C462.327513,54.1193942 462.721594,54.0449519 463.115676,53.8913558 L463.115676,53.8913558 L475.789947,46.5064904 L475.908827,46.4282788 C476.93475,45.6725481 477.246459,44.768875 477.32696,44.144125 C477.511364,42.7193558 476.696055,41.4576058 476.19339,40.8319135 L476.19339,40.8319135 Z" id="Combined-Shape"></path>
        </g>
    </g>
</svg>